<svg width="24" height="24" viewBox="0 0 24 24" fill="none" xmlns="http://www.w3.org/2000/svg">
  <path d="M17.0938 12.6375C17.0626 9.675 19.5376 8.4375 19.6501 8.375C18.3001 6.4375 16.1813 6.1875 15.4438 6.1625C13.6313 5.975 11.8813 7.1875 10.9626 7.1875C10.0251 7.1875 8.60635 6.1875 7.08135 6.2125C5.08135 6.2375 3.23135 7.3875 2.23135 9.1875C0.168848 12.85 1.70635 18.225 3.68135 21.125C4.68135 22.55 5.83135 24.1625 7.35635 24.1125C8.85635 24.0625 9.43135 23.1625 11.2313 23.1625C13.0126 23.1625 13.5563 24.1125 15.1188 24.0875C16.7313 24.0625 17.7438 22.625 18.7188 21.1875C19.8688 19.525 20.3438 17.9 20.3751 17.825C20.3438 17.8 17.1313 16.625 17.0938 12.6375Z" fill="black"/>
  <path d="M14.3313 4.1875C15.1563 3.2 15.7313 1.85 15.5813 0.5C14.4313 0.55 13.0563 1.2875 12.2 2.275C11.4375 3.1625 10.7501 4.55 10.9313 5.8625C12.2188 5.9625 13.5063 5.175 14.3313 4.1875Z" fill="black"/>
</svg>
